<svg width="24" height="16" viewBox="0 0 24 16" fill="none" xmlns="http://www.w3.org/2000/svg">
<mask id="mask0_93_52" style="mask-type:alpha" maskUnits="userSpaceOnUse" x="9" y="0" width="15" height="10">
<rect width="14.055" height="5.77269" transform="matrix(0.969512 0.245043 -0.0779103 0.99696 10.3735 0)" fill="#D9D9D9"/>
</mask>
<g mask="url(#mask0_93_52)">
<path fill-rule="evenodd" clip-rule="evenodd" d="M15.9251 1.40315C12.8591 0.62821 10.1738 2.55589 9.92741 5.70873C9.68102 8.86158 11.9668 12.0457 15.0328 12.8206L17.5562 13.4584C20.6222 14.2333 23.3075 12.3056 23.5539 9.1528C23.8003 5.99995 21.5145 2.81585 18.4484 2.04092L15.9251 1.40315ZM15.0986 2.89823C12.9299 2.35011 11.0306 3.71358 10.8563 5.94365C10.682 8.17371 12.2988 10.4259 14.4675 10.974L18.3824 11.9635C20.551 12.5116 22.4504 11.1481 22.6246 8.91807C22.7989 6.688 21.1821 4.43584 19.0135 3.88771L15.0986 2.89823Z" fill="url(#paint0_linear_93_52)"/>
</g>
<path fill-rule="evenodd" clip-rule="evenodd" d="M5.57694 3.24948C2.49688 3.97811 0.187173 7.12775 0.418063 10.2844C0.648952 13.441 3.33301 15.4093 6.41307 14.6807L8.90203 14.0919C11.9821 13.3632 14.2918 10.2136 14.0609 7.05696C13.83 3.90032 11.146 1.93204 8.0659 2.66067L5.57694 3.24948ZM4.9974 5.08848C2.81882 5.60385 1.18513 7.83164 1.34844 10.0644C1.51175 12.2971 3.41023 13.6893 5.5888 13.174L9.48193 12.253C11.6605 11.7376 13.2942 9.50981 13.1309 7.27707C12.9676 5.04432 11.0691 3.65212 8.89053 4.1675L4.9974 5.08848Z" fill="url(#paint1_linear_93_52)"/>
<mask id="mask1_93_52" style="mask-type:alpha" maskUnits="userSpaceOnUse" x="9" y="5" width="15" height="10">
<rect width="14.055" height="5.77269" transform="matrix(0.969512 0.245043 -0.0779103 0.99696 9.93066 5.71802)" fill="#D9D9D9"/>
</mask>
<g mask="url(#mask1_93_52)">
<path fill-rule="evenodd" clip-rule="evenodd" d="M15.9173 1.44538C12.8512 0.670447 10.166 2.59812 9.9196 5.75097C9.67321 8.90381 11.959 12.0879 15.025 12.8629L17.5484 13.5006C20.6144 14.2756 23.2997 12.3479 23.5461 9.19503C23.7924 6.04219 21.5067 2.85809 18.4406 2.08315L15.9173 1.44538ZM15.0908 2.94047C12.9221 2.39234 11.0228 3.75582 10.8485 5.98588C10.6742 8.21594 12.291 10.4681 14.4597 11.0162L18.3745 12.0057C20.5432 12.5538 22.4425 11.1904 22.6168 8.9603C22.7911 6.73024 21.1743 4.47807 19.0056 3.92995L15.0908 2.94047Z" fill="url(#paint2_linear_93_52)"/>
</g>
<defs>
<linearGradient id="paint0_linear_93_52" x1="11.8132" y1="1.78375" x2="24.4176" y2="6.23916" gradientUnits="userSpaceOnUse">
<stop stop-color="#E0E0F0"/>
<stop offset="1" stop-color="#9494A0"/>
</linearGradient>
<linearGradient id="paint1_linear_93_52" x1="1.65229" y1="5.59608" x2="13.8127" y2="7.65694" gradientUnits="userSpaceOnUse">
<stop stop-color="#E0E0F0"/>
<stop offset="1" stop-color="#9494A0"/>
</linearGradient>
<linearGradient id="paint2_linear_93_52" x1="11.8054" y1="1.82598" x2="24.4098" y2="6.2814" gradientUnits="userSpaceOnUse">
<stop stop-color="#E0E0F0"/>
<stop offset="1" stop-color="#9494A0"/>
</linearGradient>
</defs>
</svg>
