<svg width="26" height="21" viewBox="0 0 26 21" fill="none" xmlns="http://www.w3.org/2000/svg">
<path fill-rule="evenodd" clip-rule="evenodd" d="M13 19.5263C19.6274 19.5263 25 15.3791 25 10.2632C25 5.14726 19.6274 1 13 1C6.37258 1 1 5.14726 1 10.2632C1 12.0958 1.68941 13.8041 2.87896 15.242L1.42102 18.1579L6.10518 17.8456C8.05599 18.9046 10.4339 19.5263 13 19.5263Z" fill="#F2F2F8"/>
<path d="M2.87896 15.242L3.32618 15.4656L3.47185 15.1743L3.26422 14.9233L2.87896 15.242ZM1.42102 18.1579L0.973805 17.9343L0.58353 18.7148L1.45428 18.6568L1.42102 18.1579ZM6.10518 17.8456L6.34372 17.4062L6.21644 17.3371L6.07192 17.3467L6.10518 17.8456ZM24.5 10.2632C24.5 14.9903 19.4793 19.0263 13 19.0263V20.0263C19.7755 20.0263 25.5 15.7678 25.5 10.2632H24.5ZM13 1.5C19.4793 1.5 24.5 5.53604 24.5 10.2632H25.5C25.5 4.75847 19.7755 0.5 13 0.5V1.5ZM1.5 10.2632C1.5 5.53604 6.52065 1.5 13 1.5V0.5C6.22451 0.5 0.5 4.75847 0.5 10.2632H1.5ZM3.26422 14.9233C2.13902 13.5632 1.5 11.9649 1.5 10.2632H0.5C0.5 12.2267 1.23981 14.045 2.49371 15.5607L3.26422 14.9233ZM1.86823 18.3815L3.32618 15.4656L2.43175 15.0184L0.973805 17.9343L1.86823 18.3815ZM6.07192 17.3467L1.38776 17.659L1.45428 18.6568L6.13844 18.3445L6.07192 17.3467ZM13 19.0263C10.5136 19.0263 8.21815 18.4237 6.34372 17.4062L5.86665 18.285C7.89384 19.3855 10.3543 20.0263 13 20.0263V19.0263Z" fill="#0F0F22"/>
</svg>
